# xmcd
# Track frame offsets:
# 150
# 18129
# 43404
# 62175
# 82751
# 106525
# 125195
# 150006
# 168742
#
# Disc length: 2547 seconds
# Revision: 0
# Processed by: cddbd v1.4PL0 Copyright (c) Steve Scherf et al.
# Submitted via: VisiTrax 2.9.3.171 - For more info visit www.synapsa.com
#
DISCID=6509f109
DTITLE=Spokane - Them Everlasting Blues
DYEAR=1999
DGENRE=Blues
TTITLE0=Shady Grove Blues
TTITLE1=Strangers Blues
TTITLE2=Traveling Riverside Blues
TTITLE3=Sportin' Life Blues
TTITLE4=Rainy Night
TTITLE5=Hard Time Killin' Floor Blues
TTITLE6=Walking Blues
TTITLE7=How Can A Man Stand Such Times And Live?
TTITLE8=St James Infirmary
EXTD=SPOK - 0636
EXTT0=
EXTT1=
EXTT2=
EXTT3=
EXTT4=
EXTT5=
EXTT6=
EXTT7=
EXTT8=
PLAYORDER=
